<svg version="1" xmlns="http://www.w3.org/2000/svg" width="378.667" height="378.667" viewBox="0 0 284.000000 284.000000"><path d="M123.7 1c-20.8 3.7-42 15-55.6 29.6-12.3 13.2-19.5 25.7-24.7 42.9-2.6 8.4-2.8 10.2-2.8 28.5 0 22.5 1.5 31.4 8.5 51.7 9.7 27.8 22.8 49.7 56.5 95.1 9.7 13 18.7 25.1 20 26.8 3 4 9.9 7.4 15 7.4 7.5-.1 11.6-3 19.5-13.7 4-5.4 10.7-14.1 14.9-19.3 43.1-53.9 62.4-90.9 67.6-130 1.8-13.6 1.7-22.3-.1-33.9-3.6-22.1-11.9-38.4-27.9-55C201.1 17.2 187.5 9 168.5 3.4c-7.7-2.2-11.3-2.7-24.5-3-8.5-.1-17.7.1-20.3.6zm33.9 31c20.4 5.2 37.3 18.8 46.4 37.5 12.3 25.2 9.1 54.3-8.5 76.7-8.6 11-23.7 20.6-38.5 24.5-8.7 2.2-25.3 2.2-34-.1-20.7-5.4-37.8-19.2-47-38.1-5.8-11.9-7.3-19.5-6.7-34.5.5-13.8 2.7-22 8.8-32.7 6.5-11.4 21.5-24.7 33.5-29.8 13.5-5.7 31.7-7.1 46-3.5z"/><path d="M114.5 71.3c-6 2-9.3 4.5-12.2 9.4-4.6 7.9-3.1 22 3.5 32.4 1.6 2.5 10.1 10.8 19.1 18.8l16.2 14.2 14.6-13.8c16.4-15.5 20.6-20.6 22.8-27.7 1.8-5.9 1.9-15.4.3-20.8-2.1-7.2-11.6-13.8-20.1-13.8-4.5 0-9.9 2.8-14.8 7.6l-4.6 4.5-2.7-3.6c-5-6.5-14.5-9.6-22.1-7.2z"/></svg>