<?xml version="1.0" encoding="UTF-8"?>
<svg width="142px" height="21px" viewBox="0 0 142 21" version="1.1" xmlns="http://www.w3.org/2000/svg" xmlns:xlink="http://www.w3.org/1999/xlink">
    <!-- Generator: Sketch 52.6 (67491) - http://www.bohemiancoding.com/sketch -->
    <title>logo_grau_tuerkis_schrift_bild</title>
    <desc>Created with Sketch.</desc>
    <g id="Page-1" stroke="none" stroke-width="1" fill="none" fill-rule="evenodd">
        <g id="logo_grau_tuerkis_schrift_bild" transform="translate(0.000000, -1.000000)">
            <path d="M3.68953999e-16,8.53 C-0.021326906,6.54550226 0.750037541,4.63451824 2.14300715,3.22089814 C3.53597675,1.80727805 5.4354033,1.00787713 7.42,1 C9.43287527,0.981358441 11.3702864,1.76518432 12.8039486,3.17820483 C14.2376109,4.59122533 15.0494498,6.51706606 15.06,8.53 C15.06,14.04 10.67,18.31 8.55,21.33 C8.29560099,21.6942668 7.87930753,21.9112992 7.435,21.9112992 C6.99069247,21.9112992 6.57439901,21.6942668 6.32,21.33 C4.25,18.29 3.68953999e-16,14 3.68953999e-16,8.53 Z" id="Path" fill="#1C7881"></path>
            <circle id="Oval" fill="#FFFFFF" cx="7.4" cy="8.48" r="5.32"></circle>
            <path d="M7.47,11.79 L6.62,11 L5.37,9.93 C4.90957971,9.52375928 4.59955274,8.974166 4.49,8.37 C4.39507131,8.00947751 4.39507131,7.63052249 4.49,7.27 C4.6621579,6.7407317 5.11150433,6.34907557 5.65932338,6.25080268 C6.20714244,6.1525298 6.76460701,6.3635748 7.11,6.8 C7.2,6.9 7.29,7.02 7.36,7.11 C7.51254915,6.92365997 7.67617849,6.74667313 7.85,6.58 C8.26235321,6.20280831 8.85856064,6.10474788 9.37,6.33 C9.88966931,6.51367108 10.2561104,6.98146817 10.31,7.53 C10.4533225,8.38789727 10.1477041,9.25947568 9.5,9.84 C9,10.33 8.5,10.84 7.98,11.29 L7.47,11.79 Z" id="Path" fill="#1C7881"></path>
            <path d="M25.11,19.44 C24.2994494,19.0935396 23.5904983,18.5463395 23.05,17.85 C22.5589754,17.2050575 22.2701428,16.4290375 22.22,15.62 L25.61,15.62 C25.6707686,16.1322968 25.9472545,16.5943193 26.37,16.89 C26.8451186,17.2358812 27.4227281,17.4119816 28.01,17.39 C28.5369785,17.4185041 29.060154,17.2859663 29.51,17.01 C29.8492376,16.7910116 30.0529486,16.413769 30.05,16.01 C30.0761489,15.5671758 29.8074466,15.1600511 29.39,15.01 C28.7108772,14.7155675 28.0084599,14.4780835 27.29,14.3 C26.4596456,14.1134068 25.6441182,13.8660748 24.85,13.56 C24.2209841,13.3011254 23.6623554,12.8967193 23.22,12.38 C22.7421519,11.7761575 22.5004382,11.019025 22.54,10.25 C22.5393779,9.53441668 22.7593672,8.83603802 23.17,8.25 C23.638998,7.61854812 24.271854,7.12747948 25,6.83 C25.8826795,6.46008978 26.8331627,6.27953203 27.79,6.3 C29.155156,6.22937232 30.5002315,6.65170474 31.58,7.49 C32.5341795,8.2884122 33.101815,9.45643159 33.14,10.7 L29.93,10.7 C29.8983063,10.2055015 29.6584632,9.74761925 29.27,9.44 C28.8136819,9.11537996 28.2585594,8.95980423 27.7,9 C27.2078862,8.97026988 26.7178081,9.08496901 26.29,9.33 C25.973552,9.53611131 25.7877507,9.89254647 25.8,10.27 C25.807519,10.7060015 26.0696285,11.0972097 26.47,11.27 C27.1403804,11.577951 27.8407588,11.8158786 28.56,11.98 C29.3685908,12.1746142 30.1636146,12.4218065 30.94,12.72 C31.5671932,12.9817631 32.1226553,13.3897877 32.56,13.91 C33.0281079,14.5053003 33.2786279,15.2427464 33.27,16 C33.2762589,16.7396394 33.052623,17.4629618 32.63,18.07 C32.1677244,18.7103443 31.5331086,19.2062462 30.8,19.5 C29.9107191,19.856528 28.9577158,20.0267072 28,20 C27.0074934,20.0246601 26.0214606,19.8335949 25.11,19.44 Z" id="Path" fill="#353535"></path>
            <path d="M38.47,19.18 C37.4553345,18.6201921 36.6198079,17.7846655 36.06,16.77 C35.4640729,15.6652306 35.1643468,14.4249846 35.19,13.17 C35.1658393,11.9127165 35.4727721,10.6711902 36.08,9.57 C36.6585606,8.55247761 37.5108133,7.7175472 38.54,7.16 C40.7298044,6.00258774 43.3501956,6.00258774 45.54,7.16 C46.5721147,7.71357125 47.4253543,8.54946859 48,9.57 C48.6182162,10.6676677 48.9323539,11.9104104 48.91,13.17 C48.9357656,14.4325514 48.6140503,15.6779011 47.98,16.77 C47.3870029,17.7867043 46.5255204,18.6205086 45.49,19.18 C44.4071413,19.7556931 43.1962455,20.048097 41.97,20.03 C40.7491642,20.0567992 39.5425558,19.7637657 38.47,19.18 Z M43.64,16.66 C44.1899411,16.3512266 44.6381587,15.8891107 44.93,15.33 C45.2680856,14.6614593 45.4331191,13.9188084 45.41,13.17 C45.4807348,12.1020803 45.1205548,11.0503548 44.41,10.25 C43.7768734,9.58947473 42.8946513,9.22642035 41.98,9.25 C41.0681006,9.22549068 40.1885986,9.58892128 39.56,10.25 C38.8590423,11.0559194 38.5002587,12.1035673 38.56,13.17 C38.4922242,14.2258784 38.8322722,15.267499 39.51,16.08 C40.1240747,16.7439783 40.9960508,17.1088219 41.9,17.08 C42.507052,17.09744 43.1077477,16.9524445 43.64,16.66 Z" id="Shape" fill="#353535" fill-rule="nonzero"></path>
            <path d="M51.31,9.56 C51.8398066,8.55265125 52.6487704,7.71938387 53.64,7.16 C54.6801737,6.575717 55.8571453,6.27888545 57.05,6.3 C58.5134285,6.24596008 59.9529624,6.68239581 61.14,7.54 C62.2456899,8.40408688 63.0135352,9.62839333 63.31,11 L59.69,11 C59.5125168,10.4504502 59.1616401,9.97325797 58.69,9.64 C57.4046758,8.8064244 55.702645,9.04045364 54.69,10.19 C54.073377,11.0636653 53.7767181,12.1231614 53.85,13.19 C53.7857625,14.237201 54.0822205,15.2748039 54.69,16.13 C55.2530495,16.8056422 56.1017181,17.1762399 56.98,17.13 C58.1852189,17.2276668 59.2944252,16.4687361 59.64,15.31 L63.26,15.31 C62.9445134,16.6679648 62.175563,17.8778272 61.08,18.74 C59.9167964,19.6016631 58.4968675,20.045611 57.05,20 C55.8580582,20.0241647 54.6811444,19.7307991 53.64,19.15 C52.651529,18.5870467 51.8434561,17.754697 51.31,16.75 C50.7307653,15.6364934 50.4418482,14.3948375 50.47,13.14 C50.4456124,11.8951342 50.7344583,10.6641003 51.31,9.56 Z" id="Path" fill="#353535"></path>
            <path d="M66,4.37 C65.6245008,4.01390306 65.414331,3.51746744 65.42,3 C65.3981814,2.45908664 65.609359,1.9347838 66,1.56 C66.4027705,1.18315796 66.9387287,0.98172402 67.49,1 C68.0484703,0.974029593 68.5935109,1.17616387 69,1.56 C69.3829639,1.93786745 69.583553,2.4630462 69.55,3 C69.5684242,3.51385656 69.3686285,4.01152955 69,4.37 C68.6087215,4.75327105 68.0773783,4.95930207 67.53,4.94 C66.9621358,4.97630265 66.4056925,4.76900025 66,4.37 Z M69.13,6.52 L69.13,19.82 L65.78,19.82 L65.78,6.52 L69.13,6.52 Z" id="Shape" fill="#353535" fill-rule="nonzero"></path>
            <path d="M72.4,9.54 C73.3749973,7.52983766 75.4261146,6.26641181 77.66,6.3 C78.5664056,6.27938157 79.4635915,6.4856312 80.27,6.9 C80.9718724,7.26784953 81.5832653,7.78702121 82.06,8.42 L82.06,6.52 L85.44,6.52 L85.44,19.82 L82.06,19.82 L82.06,17.87 C81.5960418,18.5225325 80.9821627,19.0541037 80.27,19.42 C79.4582197,19.8402881 78.5539081,20.0500334 77.64,20.03 C76.5590886,20.0392825 75.4978205,19.7410176 74.58,19.17 C73.6413147,18.5743377 72.8865818,17.7295908 72.4,16.73 C71.8432704,15.6094387 71.5653935,14.3709996 71.59,13.12 C71.5666758,11.8787385 71.8446131,10.6503241 72.4,9.54 Z M81.58,11.07 C80.9850732,9.94860164 79.8194378,9.2474825 78.55,9.2474825 C77.2805622,9.2474825 76.1149268,9.94860164 75.52,11.07 C75.1757333,11.7082253 75.0034236,12.4250336 75.02,13.15 C75.0049452,13.8811755 75.1770608,14.6040612 75.52,15.25 C75.8158108,15.8192418 76.26197,16.2965283 76.81,16.63 C77.3285319,16.9445537 77.9235192,17.1105966 78.53,17.11 C79.1446021,17.1106157 79.7484046,16.9484516 80.28,16.64 C80.829224,16.3225451 81.2793301,15.8585895 81.58,15.3 C81.9139405,14.6514627 82.0790257,13.9292153 82.06,13.2 C82.0863805,12.4604848 81.9210249,11.7267196 81.58,11.07 Z" id="Shape" fill="#353535" fill-rule="nonzero"></path>
            <polygon id="Path" fill="#353535" points="92.09 2.06 92.09 19.82 88.73 19.82 88.73 2.06"></polygon>
            <path d="M100.55,6.9 C101.354418,6.49000048 102.247265,6.28395909 103.15,6.3 C104.238213,6.28610229 105.308592,6.577079 106.24,7.14 C107.171773,7.72205735 107.925849,8.54877309 108.42,9.53 C108.97542,10.6435279 109.250066,11.8760017 109.22,13.12 C109.24771,14.3701767 108.973274,15.6085733 108.42,16.73 C107.929522,17.7269697 107.175644,18.5707598 106.24,19.17 C105.312422,19.7439545 104.240722,20.042227 103.15,20.03 C102.247601,20.0541617 101.353585,19.851289 100.55,19.44 C99.8411265,19.0826198 99.2275384,18.561584 98.76,17.92 L98.76,19.82 L95.4,19.82 L95.4,2.06 L98.76,2.06 L98.76,8.46 C99.2166095,7.79830219 99.8321066,7.26189131 100.55,6.9 Z M105.3,11 C104.703763,9.89979997 103.551368,9.21604588 102.3,9.22 C101.699059,9.21718152 101.108423,9.37606588 100.59,9.68 C100.042241,10.0081674 99.5931352,10.4780009 99.29,11.04 C98.9492413,11.6827822 98.7804467,12.4027428 98.8,13.13 C98.7818008,13.8571184 98.950516,14.5767403 99.29,15.22 C99.5904619,15.7813352 100.040398,16.2485771 100.59,16.57 C101.107624,16.8769776 101.698195,17.0392983 102.3,17.04 C102.896005,17.0495614 103.483472,16.8975112 104,16.6 C104.54815,16.2679284 104.997107,15.794797 105.3,15.23 C105.642838,14.5807953 105.811655,13.8538502 105.79,13.12 C105.816683,12.3824677 105.647621,11.6510186 105.3,11 Z" id="Shape" fill="#1C7881" fill-rule="nonzero"></path>
            <path d="M122.88,7.83 C123.905518,8.9683608 124.431468,10.4705602 124.34,12 L124.34,19.8 L121,19.8 L121,12.47 C121.065612,11.5721485 120.774565,10.6846354 120.19,10 C119.613806,9.42146886 118.814465,9.12217214 118,9.18 C117.180214,9.13790458 116.382086,9.45132497 115.81,10.04 C115.231652,10.7123624 114.940739,11.585101 115,12.47 L115,19.82 L111.64,19.82 L111.64,6.52 L115,6.52 L115,8.18 C115.456168,7.59548564 116.046042,7.12907344 116.72,6.82 C117.433763,6.48812613 118.21291,6.32067784 119,6.33 C120.446919,6.26092662 121.855814,6.80560254 122.88,7.83 Z" id="Path" fill="#1C7881"></path>
            <path d="M132.68,6.9 C133.487559,6.4887884 134.383938,6.28272414 135.29,6.3 C136.374894,6.28743917 137.441699,6.57838622 138.37,7.14 C139.305458,7.72064232 140.063112,8.54748838 140.56,9.53 C141.110879,10.6451342 141.385273,11.8764754 141.36,13.12 C141.382662,14.3696754 141.108486,15.6068948 140.56,16.73 C140.065929,17.7276638 139.308663,18.5713754 138.37,19.17 C137.445526,19.742636 136.377403,20.040878 135.29,20.03 C134.38453,20.052864 133.487595,19.8501086 132.68,19.44 C131.974759,19.0813068 131.364711,18.5603668 130.9,17.92 L130.9,19.82 L127.54,19.82 L127.54,2.06 L130.9,2.06 L130.9,8.46 C131.352526,7.79842702 131.964786,7.26183929 132.68,6.9 Z M137.44,11 C137.136171,10.4463304 136.686595,9.98637998 136.14,9.67 C135.608539,9.37239011 135.009111,9.21736559 134.4,9.22 C133.795922,9.21734623 133.202108,9.37615708 132.68,9.68 C132.13745,10.0114671 131.692362,10.4807077 131.39,11.04 C131.049241,11.6827822 130.880447,12.4027428 130.9,13.13 C130.881801,13.8571184 131.050516,14.5767403 131.39,15.22 C131.689814,15.7785155 132.135682,16.2451216 132.68,16.57 C133.201312,16.8768903 133.795064,17.0391364 134.4,17.04 C135.012924,17.041699 135.614637,16.8757093 136.14,16.56 C136.68815,16.2279284 137.137107,15.754797 137.44,15.19 C137.778231,14.5390852 137.946765,13.8133546 137.93,13.08 C137.944727,12.3564347 137.776165,11.6409032 137.44,11 Z" id="Shape" fill="#1C7881" fill-rule="nonzero"></path>
        </g>
    </g>
</svg>