<?xml version="1.0" encoding="UTF-8"?>
<svg width="99px" height="15px" viewBox="0 0 99 15" version="1.1" xmlns="http://www.w3.org/2000/svg" xmlns:xlink="http://www.w3.org/1999/xlink">
    <!-- Generator: Sketch 52.6 (67491) - http://www.bohemiancoding.com/sketch -->
    <title>logo_grau_tuerkis_schrift_bild</title>
    <desc>Created with Sketch.</desc>
    <g id="Page-1" stroke="none" stroke-width="1" fill="none" fill-rule="evenodd">
        <g id="logo_grau_tuerkis_schrift_bild">
            <path d="M2.57226965e-16,5.81590909 C-0.0148687584,4.46284245 0.522913497,3.1598988 1.49406836,2.19606692 C2.46522323,1.23223503 3.78947132,0.687188955 5.17309859,0.681818182 C6.57644121,0.669108028 7.92717151,1.20353477 8.92669659,2.16695784 C9.92622167,3.13038091 10.492222,4.44345413 10.4995775,5.81590909 C10.4995775,9.57272727 7.43894366,12.4840909 5.96091549,14.5431818 C5.7835528,14.7915456 5.49332004,14.9395222 5.18355634,14.9395222 C4.87379264,14.9395222 4.58355987,14.7915456 4.40619718,14.5431818 C2.96302817,12.4704545 2.57226965e-16,9.54545455 2.57226965e-16,5.81590909 Z" id="Path" fill="#1C7881"></path>
            <ellipse id="Oval" fill="#FFFFFF" cx="5.15915493" cy="5.78181818" rx="3.70901408" ry="3.62727273"></ellipse>
            <path d="M5.20795775,8.03863636 L4.61535211,7.5 L3.74387324,6.77045455 C3.422876,6.49347224 3.20673043,6.11874955 3.13035211,5.70681818 C3.06416944,5.46100739 3.06416944,5.20262897 3.13035211,4.95681818 C3.25037769,4.59595343 3.56365443,4.32891516 3.94558461,4.26191092 C4.3275148,4.19490668 4.71616967,4.338801 4.95697183,4.63636364 C5.01971831,4.70454545 5.08246479,4.78636364 5.13126761,4.84772727 C5.23762229,4.72067725 5.35170191,4.60000441 5.47288732,4.48636364 C5.76037301,4.22918749 6.17603875,4.1623281 6.53260563,4.31590909 C6.89491029,4.44113937 7.15038681,4.76009194 7.18795775,5.13409091 C7.28787976,5.71902087 7.07480778,6.31327888 6.62323944,6.70909091 C6.27464789,7.04318182 5.92605634,7.39090909 5.56352113,7.69772727 L5.20795775,8.03863636 Z" id="Path" fill="#1C7881"></path>
            <path d="M17.5062676,13.2545455 C16.9411654,13.0183224 16.4468967,12.6452315 16.0700704,12.1704545 C15.7277363,11.730721 15.5263672,11.2016165 15.4914085,10.65 L17.8548592,10.65 C17.897226,10.9992933 18.0899873,11.3143086 18.3847183,11.5159091 C18.715963,11.7517372 19.1186625,11.8718056 19.5280986,11.8568182 C19.8954991,11.8762528 20.2602482,11.7858861 20.5738732,11.5977273 C20.810384,11.448417 20.9524078,11.1912061 20.9503521,10.9159091 C20.9685827,10.6139835 20.781248,10.3363985 20.4902113,10.2340909 C20.0167383,10.0333414 19.5270248,9.87142057 19.0261268,9.75 C18.4472177,9.62277738 17.8786458,9.45414188 17.325,9.24545455 C16.8864607,9.06894911 16.4969942,8.79321771 16.1885915,8.44090909 C15.8554439,8.02919831 15.6869252,7.51297157 15.714507,6.98863636 C15.7140733,6.50073864 15.8674461,6.02457138 16.1537324,5.625 C16.4807099,5.19446463 16.9219264,4.8596451 17.4295775,4.65681818 C18.0449667,4.40460666 18.7076275,4.28149911 19.3747183,4.29545455 C20.326482,4.24729931 21.2642459,4.53525323 22.0170423,5.10681818 C22.68228,5.65119014 23.078026,6.44756699 23.1046479,7.29545455 L20.8666901,7.29545455 C20.8445938,6.95829649 20.6773793,6.64610403 20.4065493,6.43636364 C20.088412,6.21503179 19.70139,6.10895743 19.3119718,6.13636364 C18.9688784,6.1160931 18.6272042,6.19429705 18.3289437,6.36136364 C18.1083215,6.50189407 17.9787839,6.74491805 17.9873239,7.00227273 C17.992566,7.29954646 18.1753044,7.56627935 18.4544366,7.68409091 C18.9218145,7.89405749 19.4101065,8.05628086 19.9115493,8.16818182 C20.4752851,8.30087331 21.0295623,8.46941349 21.5708451,8.67272727 C22.0081136,8.8512021 22.3953723,9.12940068 22.7002817,9.48409091 C23.0266386,9.8899775 23.2012969,10.3927816 23.1952817,10.9090909 C23.1996453,11.4133905 23.0437301,11.9065649 22.7490845,12.3204545 C22.4267938,12.7570529 21.9843504,13.0951679 21.4732394,13.2954545 C20.8532478,13.5385418 20.18883,13.6545731 19.5211268,13.6363636 C18.829168,13.6531773 18.1417225,13.5229056 17.5062676,13.2545455 Z" id="Path" fill="#353535"></path>
            <path d="M26.8206338,13.0772727 C26.1132261,12.6955855 25.5307111,12.1259083 25.1404225,11.4340909 C24.7249523,10.6808391 24.5159883,9.83521677 24.5338732,8.97954545 C24.5170288,8.12230667 24.7310172,7.27581153 25.1543662,6.525 C25.5577289,5.83123473 26.151905,5.261964 26.8694366,4.88181818 C28.3961313,4.09267346 30.2230237,4.09267346 31.7497183,4.88181818 C32.4692913,5.25925313 33.0641555,5.82918313 33.4647887,6.525 C33.8957986,7.27340979 34.1148101,8.12073437 34.0992254,8.97954545 C34.1171887,9.84037594 33.8928942,10.689478 33.4508451,11.4340909 C33.0374175,12.1272984 32.4368065,12.6958013 31.7148592,13.0772727 C30.9599084,13.4697908 30.1156923,13.669157 29.2607746,13.6568182 C28.4096285,13.6750904 27.5684016,13.4752948 26.8206338,13.0772727 Z M30.4250704,11.3590909 C30.80848,11.1485636 31.1209698,10.8334846 31.3244366,10.4522727 C31.5601442,9.9964495 31.6752027,9.49009666 31.6590845,8.97954545 C31.7083996,8.25141836 31.4572882,7.53433281 30.9619014,6.98863636 C30.5204962,6.53827823 29.9054259,6.29074115 29.2677465,6.30681818 C28.6319856,6.29010728 28.0188117,6.53790087 27.5805634,6.98863636 C27.0918675,7.53812684 26.8417297,8.25243224 26.8833803,8.97954545 C26.8361282,9.69946258 27.0732039,10.4096584 27.5457042,10.9636364 C27.9738267,11.4163488 28.5817537,11.6651058 29.2119718,11.6454545 C29.6351982,11.6573455 30.0539931,11.5584849 30.4250704,11.3590909 Z" id="Shape" fill="#353535" fill-rule="nonzero"></path>
            <path d="M35.7724648,6.51818182 C36.141837,5.83135313 36.7058329,5.26321628 37.3969014,4.88181818 C38.122093,4.48344341 38.9426577,4.28105826 39.7742958,4.29545455 C40.7945734,4.25860914 41.7981921,4.55617896 42.6257746,5.14090909 C43.3966429,5.73005924 43.9319717,6.56481363 44.138662,7.5 L41.6148592,7.5 C41.4911208,7.12530696 41.2464956,6.79994862 40.9176761,6.57272727 C40.0215697,6.00438028 38.8349426,6.16394566 38.1289437,6.94772727 C37.6990445,7.54340814 37.492219,8.26579184 37.5433099,8.99318182 C37.4985246,9.70718248 37.7052101,10.414639 38.1289437,10.9977273 C38.5214923,11.4583924 39.1131697,11.7110726 39.725493,11.6795455 C40.5657512,11.7461364 41.3390711,11.2286837 41.58,10.4386364 L44.1038028,10.4386364 C43.8838509,11.3645214 43.3477516,12.1894276 42.5839437,12.7772727 C41.7729777,13.3647703 40.7830274,13.6674621 39.7742958,13.6363636 C38.9432941,13.6528396 38.1227697,13.4528176 37.3969014,13.0568182 C36.7077561,12.6729864 36.1443813,12.1054752 35.7724648,11.4204545 C35.3686322,10.6612455 35.167204,9.81466195 35.186831,8.95909091 C35.1698283,8.11031878 35.3712069,7.27097745 35.7724648,6.51818182 Z" id="Path" fill="#353535"></path>
            <path d="M46.0140845,2.97954545 C45.7522928,2.73675208 45.605766,2.39827325 45.6097183,2.04545455 C45.5945068,1.67664998 45.7417362,1.31917077 46.0140845,1.06363636 C46.2948893,0.806698612 46.6685503,0.669357287 47.0528873,0.681818182 C47.4422434,0.664111086 47.8222365,0.80192991 48.1056338,1.06363636 C48.3726298,1.32127326 48.5124771,1.67934968 48.4890845,2.04545455 C48.5019295,2.39581129 48.3626353,2.73513378 48.1056338,2.97954545 C47.832841,3.24086663 47.4623976,3.38134232 47.0807746,3.36818182 C46.6848693,3.39293362 46.2969265,3.25159108 46.0140845,2.97954545 Z M48.1962676,4.44545455 L48.1962676,13.5136364 L45.8607042,13.5136364 L45.8607042,4.44545455 L48.1962676,4.44545455 Z" id="Shape" fill="#353535" fill-rule="nonzero"></path>
            <path d="M50.4760563,6.50454545 C51.155808,5.13398023 52.5858123,4.27255351 54.1432394,4.29545455 C54.7751701,4.28139652 55.4006729,4.42202127 55.9628873,4.70454545 C56.4522209,4.95535195 56.8784737,5.30933264 57.2108451,5.74090909 L57.2108451,4.44545455 L59.5673239,4.44545455 L59.5673239,13.5136364 L57.2108451,13.5136364 L57.2108451,12.1840909 C56.8873812,12.6289994 56.4593951,12.9914343 55.9628873,13.2409091 C55.3969278,13.5274692 54.7664571,13.6704773 54.1292958,13.6568182 C53.3757026,13.6631472 52.6358044,13.4597847 51.9959155,13.0704545 C51.3414799,12.6643212 50.8152929,12.0883574 50.4760563,11.4068182 C50.0879139,10.6427991 49.8941828,9.79840881 49.911338,8.94545455 C49.8950768,8.09913985 50.08885,7.26158464 50.4760563,6.50454545 Z M56.8761972,7.54772727 C56.4614243,6.78313748 55.6487629,6.30510171 54.7637324,6.30510171 C53.8787018,6.30510171 53.0660405,6.78313748 52.6512676,7.54772727 C52.4112507,7.98288088 52.2911193,8.4716138 52.3026761,8.96590909 C52.2921801,9.46443784 52.4121762,9.95731442 52.6512676,10.3977273 C52.8575019,10.7858467 53.1685565,11.1112693 53.5506338,11.3386364 C53.9121455,11.5531048 54.3269606,11.6663159 54.7497887,11.6659091 C55.1782789,11.6663289 55.5992398,11.5557625 55.9698592,11.3454545 C56.3527688,11.129008 56.6665752,10.8126747 56.8761972,10.4318182 C57.1090149,9.98963364 57.2241094,9.49719226 57.2108451,9 C57.2292371,8.49578512 57.113954,7.99549062 56.8761972,7.54772727 Z" id="Shape" fill="#353535" fill-rule="nonzero"></path>
            <polygon id="Path" fill="#353535" points="64.2035915 1.40454545 64.2035915 13.5136364 61.8610563 13.5136364 61.8610563 1.40454545"></polygon>
            <path d="M70.1017606,4.70454545 C70.6625875,4.42500033 71.2850647,4.28451756 71.9144366,4.29545455 C72.6731205,4.28597883 73.4193704,4.48437204 74.0687324,4.86818182 C74.7183489,5.2650391 75.2440775,5.82870892 75.5885915,6.49772727 C75.975821,7.25695083 76.1672995,8.09727389 76.146338,8.94545455 C76.1656573,9.79784772 75.9743245,10.642209 75.5885915,11.4068182 C75.2466383,12.0865703 74.7210473,12.6618817 74.0687324,13.0704545 C73.4220408,13.4617871 72.6748697,13.6651547 71.9144366,13.6568182 C71.2852991,13.673292 70.6620068,13.5349697 70.1017606,13.2545455 C69.607546,13.0108771 69.1797627,12.6556255 68.8538028,12.2181818 L68.8538028,13.5136364 L66.5112676,13.5136364 L66.5112676,1.40454545 L68.8538028,1.40454545 L68.8538028,5.76818182 C69.1721433,5.31702422 69.6012574,4.95128953 70.1017606,4.70454545 Z M73.4133803,7.5 C72.9976939,6.74986362 72.1942639,6.28366764 71.321831,6.28636364 C70.9028648,6.28444195 70.4910838,6.39277219 70.1296479,6.6 C69.7477595,6.82375047 69.4346506,7.14409154 69.2233099,7.52727273 C68.9857386,7.9655333 68.8680579,8.45641551 68.8816901,8.95227273 C68.869002,9.44803528 68.9866274,9.93868658 69.2233099,10.3772727 C69.4327868,10.7600013 69.746475,11.0785753 70.1296479,11.2977273 C70.4905265,11.5070302 70.9022628,11.6177034 71.321831,11.6181818 C71.7373559,11.624701 72.1469278,11.5210304 72.5070423,11.3181818 C72.8892032,11.0917693 73.2022082,10.7691798 73.4133803,10.3840909 C73.6524015,9.94145132 73.7700976,9.44580693 73.755,8.94545455 C73.7736028,8.44259163 73.655736,7.94387631 73.4133803,7.5 Z" id="Shape" fill="#1C7881" fill-rule="nonzero"></path>
            <path d="M85.6698592,5.33863636 C86.384833,6.11479146 86.7515163,7.13901833 86.6877465,8.18181818 L86.6877465,13.5 L84.3591549,13.5 L84.3591549,8.50227273 C84.4048986,7.89010126 84.2019857,7.28497869 83.7944366,6.81818182 C83.3927241,6.42372877 82.8354369,6.21966282 82.2676056,6.25909091 C81.696065,6.23038949 81.1396232,6.44408521 80.7407746,6.84545455 C80.3375599,7.30388345 80.1347403,7.89893251 80.1760563,8.50227273 L80.1760563,13.5136364 L77.8335211,13.5136364 L77.8335211,4.44545455 L80.1760563,4.44545455 L80.1760563,5.57727273 C80.4940887,5.17874021 80.9053391,4.86073189 81.3752113,4.65 C81.8728346,4.42372236 82.4160429,4.30955307 82.9647887,4.31590909 C83.9735564,4.2688136 84.9558142,4.64018355 85.6698592,5.33863636 Z" id="Path" fill="#1C7881"></path>
            <path d="M92.5022535,4.70454545 C93.0652699,4.42417391 93.6902105,4.28367555 94.3219014,4.29545455 C95.0782709,4.28689034 95.8220299,4.48526333 96.4692254,4.86818182 C97.1214108,5.26407431 97.6496343,5.82783299 97.9960563,6.49772727 C98.3801199,7.25804607 98.5714224,8.09759688 98.5538028,8.94545455 C98.5696024,9.79750595 98.3784515,10.6410647 97.9960563,11.4068182 C97.6515982,12.0870435 97.1236453,12.6623014 96.4692254,13.0704545 C95.8246975,13.4608882 95.0800207,13.664235 94.3219014,13.6568182 C93.6906229,13.6724073 93.0652952,13.534165 92.5022535,13.2545455 C92.0105714,13.0099819 91.5852561,12.6547955 91.2612676,12.2181818 L91.2612676,13.5136364 L88.9187324,13.5136364 L88.9187324,1.40454545 L91.2612676,1.40454545 L91.2612676,5.76818182 C91.576761,5.31710933 92.0036185,4.95125406 92.5022535,4.70454545 Z M95.8208451,7.5 C95.6090203,7.12249798 95.2955838,6.80889544 94.914507,6.59318182 C94.5439813,6.39026598 94.1260701,6.28456745 93.7014085,6.28636364 C93.2802556,6.28455424 92.8662582,6.39283437 92.5022535,6.6 C92.1239971,6.8260003 91.8136889,7.14593705 91.6028873,7.52727273 C91.3653161,7.9655333 91.2476354,8.45641551 91.2612676,8.95227273 C91.2485795,9.44803528 91.3662048,9.93868658 91.6028873,10.3772727 C91.8119126,10.7580787 92.1227643,11.0762193 92.5022535,11.2977273 C92.8657037,11.5069707 93.2796573,11.617593 93.7014085,11.6181818 C94.1287287,11.6193402 94.5482328,11.5061654 94.914507,11.2909091 C95.296668,11.0644966 95.609673,10.7419071 95.8208451,10.3568182 C96.0566538,9.91301266 96.1741533,9.41819632 96.1624648,8.91818182 C96.1727325,8.42484181 96.0552135,7.93697948 95.8208451,7.5 Z" id="Shape" fill="#1C7881" fill-rule="nonzero"></path>
        </g>
    </g>
</svg>